# xmcd
#
# Track frame offsets: 
#        187
#        16365
#        29422
#        45787
#        62010
#        77295
#        92310
#        106685
#        125865
#        136682
#        148605
#
# Disc length: 2236 seconds
#
# Revision: 3
# Processed by: cddbd v1.5.2PL0 Copyright (c) Steve Scherf et al.
# Submitted via: ExactAudioCopy v0.99pb5
#
DISCID=7b08ba0b
DTITLE=Don Williams - One Good Well
DYEAR=1998
DGENRE=Country
TTITLE0=Learn To Let It Go
TTITLE1=One Good Well
TTITLE2=Cryin' Eyes
TTITLE3=I've Been Loved By The Best
TTITLE4=Broken Heartland
TTITLE5=Just As Long As I Have You
TTITLE6=Why Get Up
TTITLE7=Maybe That's All It Takes
TTITLE8=We're All The Way
TTITLE9=Flowers Won't Grow (In Gardens Of Stone)
TTITLE10=If You Love Me, Won't You Love Me Like You Love Me
EXTD=
EXTT0=
EXTT1=
EXTT2=
EXTT3=
EXTT4=
EXTT5=
EXTT6=
EXTT7=
EXTT8=
EXTT9=
EXTT10=
PLAYORDER=
